<svg width="70" height="70" viewBox="0 0 70 70" fill="none" xmlns="http://www.w3.org/2000/svg">
<path d="M35 6.5625C19.32 6.5625 6.5625 19.32 6.5625 35C6.5625 50.68 19.32 63.4375 35 63.4375C50.68 63.4375 63.4375 50.68 63.4375 35C63.4375 19.32 50.68 6.5625 35 6.5625ZM35 10.9375C48.3153 10.9375 59.0625 21.6847 59.0625 35C59.0625 48.3153 48.3153 59.0625 35 59.0625C21.6847 59.0625 10.9375 48.3153 10.9375 35C10.9375 21.6847 21.6847 10.9375 35 10.9375ZM33.425 20.9869L20.9891 33.425L19.4141 35L20.9891 36.575L33.4294 49.0131L36.575 45.9375L27.825 37.1875H50.3125V32.8125H27.825L36.575 24.0625L33.425 20.9869Z" fill="black"/>
</svg>
