<svg width="60" height="60" viewBox="0 0 60 60" fill="none" xmlns="http://www.w3.org/2000/svg">
<path d="M19.5 37.5C19.1022 37.5 18.7206 37.342 18.4393 37.0607C18.158 36.7794 18 36.3978 18 36C18 35.6022 18.158 35.2206 18.4393 34.9393C18.7206 34.658 19.1022 34.5 19.5 34.5H40.5C40.8978 34.5 41.2794 34.658 41.5607 34.9393C41.842 35.2206 42 35.6022 42 36C42 36.3978 41.842 36.7794 41.5607 37.0607C41.2794 37.342 40.8978 37.5 40.5 37.5H19.5ZM19.5 45C19.1022 45 18.7206 44.842 18.4393 44.5607C18.158 44.2794 18 43.8978 18 43.5C18 43.1022 18.158 42.7206 18.4393 42.4393C18.7206 42.158 19.1022 42 19.5 42H40.5C40.8978 42 41.2794 42.158 41.5607 42.4393C41.842 42.7206 42 43.1022 42 43.5C42 43.8978 41.842 44.2794 41.5607 44.5607C41.2794 44.842 40.8978 45 40.5 45H19.5Z" fill="black"/>
<path fill-rule="evenodd" clip-rule="evenodd" d="M33.555 3H13.5C12.3065 3 11.1619 3.47411 10.318 4.31802C9.47411 5.16193 9 6.30653 9 7.5V52.5C9 53.6935 9.47411 54.8381 10.318 55.682C11.1619 56.5259 12.3065 57 13.5 57H46.5C47.6935 57 48.8381 56.5259 49.682 55.682C50.5259 54.8381 51 53.6935 51 52.5V21.606C50.9997 20.4794 50.5769 19.3939 49.815 18.564L36.873 4.458C36.4512 3.99824 35.9385 3.6312 35.3673 3.3802C34.7961 3.12921 34.1789 2.99973 33.555 3ZM12 7.5C12 7.10218 12.158 6.72064 12.4393 6.43934C12.7206 6.15804 13.1022 6 13.5 6H33.555C33.7631 5.99977 33.9691 6.04286 34.1596 6.12653C34.3502 6.2102 34.5213 6.33262 34.662 6.486L47.604 20.592C47.8583 20.8685 47.9996 21.2303 48 21.606V52.5C48 52.8978 47.842 53.2794 47.5607 53.5607C47.2794 53.842 46.8978 54 46.5 54H13.5C13.1022 54 12.7206 53.842 12.4393 53.5607C12.158 53.2794 12 52.8978 12 52.5V7.5Z" fill="black"/>
<path d="M34.5 6.29999V20.4H48.6" stroke="black" stroke-width="3" stroke-linecap="round" stroke-linejoin="round"/>
<path d="M24.4021 18.399C24.8305 18.4121 25.2572 18.339 25.6568 18.1842C26.0565 18.0293 26.4209 17.7957 26.7286 17.4973C27.0363 17.1989 27.2809 16.8418 27.4479 16.447C27.615 16.0523 27.7011 15.6281 27.7011 15.1995C27.7011 14.7709 27.615 14.3466 27.4479 13.9519C27.2809 13.5572 27.0363 13.2 26.7286 12.9016C26.4209 12.6032 26.0565 12.3697 25.6568 12.2148C25.2572 12.0599 24.8305 11.9869 24.4021 12C23.5705 12.0254 22.7815 12.3737 22.2022 12.9709C21.623 13.5682 21.2991 14.3675 21.2991 15.1995C21.2991 16.0315 21.623 16.8308 22.2022 17.428C22.7815 18.0253 23.5705 18.3735 24.4021 18.399Z" fill="black"/>
<path fill-rule="evenodd" clip-rule="evenodd" d="M30.798 25.332C30.798 21.93 27.933 19.467 24.399 19.467C20.865 19.467 18 21.927 18 25.332V26.934C18.0008 27.2167 18.1137 27.4876 18.3139 27.6872C18.5141 27.8869 18.7853 27.999 19.068 27.999H29.733C30.0152 27.9982 30.2856 27.8857 30.4852 27.6862C30.6847 27.4866 30.7972 27.2162 30.798 26.934V25.332Z" fill="black"/>
</svg>
