<svg width="60" height="60" viewBox="0 0 60 60" fill="none" xmlns="http://www.w3.org/2000/svg">
<path d="M32.9124 22.3125L37.6874 27.0875M21.7499 11.15L27.0874 16.4875M5.2624 27.65C4.69351 28.3032 4.38013 29.1401 4.38013 30.0062C4.38013 30.8724 4.69351 31.7093 5.2624 32.3625L27.6499 54.75C28.3031 55.3189 29.14 55.6323 30.0062 55.6323C30.8723 55.6323 31.7092 55.3189 32.3624 54.75L54.7374 32.3625C55.3113 31.7117 55.6279 30.8739 55.6279 30.0062C55.6279 29.1386 55.3113 28.3008 54.7374 27.65L32.3624 5.2625C31.7187 4.67455 30.8713 4.36066 29.9999 4.3875C29.1307 4.36467 28.2871 4.68326 27.6499 5.275L5.2624 27.65Z" stroke="black" stroke-width="1.25" stroke-linecap="round" stroke-linejoin="round"/>
<path d="M30 44.6375C32.2782 44.6375 34.125 42.7907 34.125 40.5125C34.125 38.2343 32.2782 36.3875 30 36.3875C27.7218 36.3875 25.875 38.2343 25.875 40.5125C25.875 42.7907 27.7218 44.6375 30 44.6375Z" stroke="black" stroke-width="1.25" stroke-linecap="round" stroke-linejoin="round"/>
<path d="M30 23.525C32.2782 23.525 34.125 21.6782 34.125 19.4C34.125 17.1218 32.2782 15.275 30 15.275C27.7218 15.275 25.875 17.1218 25.875 19.4C25.875 21.6782 27.7218 23.525 30 23.525Z" stroke="black" stroke-width="1.25" stroke-linecap="round" stroke-linejoin="round"/>
<path d="M40.6001 34.125C42.8783 34.125 44.7251 32.2782 44.7251 30C44.7251 27.7218 42.8783 25.875 40.6001 25.875C38.3219 25.875 36.4751 27.7218 36.4751 30C36.4751 32.2782 38.3219 34.125 40.6001 34.125Z" stroke="black" stroke-width="1.25" stroke-linecap="round" stroke-linejoin="round"/>
<path d="M30 36.3875V23.525" stroke="black" stroke-width="1.25" stroke-linecap="round" stroke-linejoin="round"/>
</svg>
