<svg width="60" height="60" viewBox="0 0 60 60" fill="none" xmlns="http://www.w3.org/2000/svg">
<path d="M4.68755 25.7812L45.954 10.4695C46.454 10.2966 46.9927 10.2682 47.5081 10.3876C48.0235 10.507 48.4949 10.7694 48.8679 11.1447C49.2409 11.5199 49.5005 11.9927 49.6169 12.5089C49.7333 13.025 49.7017 13.5635 49.5258 14.0625L34.2188 55.2961C34.0333 55.8495 33.6779 56.3303 33.2032 56.6699C32.7285 57.0095 32.1587 57.1906 31.5751 57.1875H31.5235C30.9288 57.1837 30.3511 56.9886 29.8758 56.6311C29.4006 56.2736 29.053 55.7727 28.8844 55.2023V55.1789L23.6227 36.3844L4.82818 31.125H4.80474C4.23767 30.9527 3.7395 30.6058 3.38134 30.1336C3.02319 29.6614 2.82335 29.0881 2.81036 28.4956C2.79736 27.9031 2.97188 27.3216 3.30899 26.8341C3.6461 26.3467 4.12857 25.9782 4.68755 25.7812ZM5.34146 29.325L24.6305 34.7156C24.7858 34.7587 24.9273 34.8411 25.0414 34.9548C25.1555 35.0686 25.2384 35.2098 25.2821 35.3648L30.6727 54.6539C30.7285 54.8428 30.8442 55.0084 31.0023 55.1259C31.1604 55.2434 31.3523 55.3064 31.5493 55.3055C31.7505 55.3092 31.9475 55.248 32.1112 55.1311C32.275 55.0142 32.3968 54.8477 32.4586 54.6562L47.761 13.4344C47.8193 13.2672 47.8282 13.0868 47.7866 12.9147C47.7451 12.7426 47.6548 12.5862 47.5266 12.4641C47.3539 12.2903 47.12 12.191 46.8751 12.1875C46.7754 12.1878 46.6764 12.2044 46.5821 12.2367L5.31334 27.5461C5.12733 27.6105 4.9663 27.7318 4.85308 27.8928C4.73986 28.0538 4.68018 28.2463 4.68251 28.4431C4.68485 28.64 4.74907 28.8311 4.86608 28.9893C4.98309 29.1476 5.14695 29.2651 5.33443 29.325H5.34146Z" fill="black"/>
</svg>
